<svg width="1043" height="540" viewBox="0 0 1043 540" fill="none" xmlns="http://www.w3.org/2000/svg">
<path d="M766.156 538.313C726.997 538.313 690.812 531.869 657.602 518.981C624.886 505.598 596.385 487.01 572.096 463.217C548.303 438.928 529.715 410.426 516.332 377.711C503.444 344.5 497 308.315 497 269.156C497 230.493 503.692 194.804 517.075 162.089C530.954 129.374 550.286 100.872 575.07 76.5832C599.854 52.2947 628.852 33.4587 662.063 20.0752C695.769 6.69173 732.202 0 771.361 0C796.145 0 820.434 3.22195 844.227 9.66585C868.019 16.1097 890.077 25.7756 910.4 38.6634C931.219 51.0555 949.064 66.1738 963.934 84.0185L885.864 172.498C870.498 155.645 853.149 142.509 833.817 133.091C814.981 123.673 793.915 118.964 770.618 118.964C768.668 118.964 766.728 118.998 764.798 119.065C762.002 119.162 759.226 119.33 756.471 119.567C741.779 120.836 727.659 124.105 714.11 129.374C696.761 136.313 681.642 146.475 668.755 159.858C655.867 173.242 645.705 189.103 638.27 207.444C630.835 225.784 627.117 246.603 627.117 269.9C627.117 292.701 630.587 313.52 637.526 332.356C644.962 350.696 655.371 366.558 668.755 379.942C682.634 392.83 698.991 402.743 717.827 409.683C729.963 414.039 742.88 417.028 756.579 418.65C762.555 419.357 768.68 419.805 774.953 419.991C777.206 420.059 779.479 420.092 781.77 420.092C797.137 420.092 811.759 418.11 825.638 414.144C840.013 409.683 853.397 403.487 865.789 395.556C878.181 387.625 888.838 378.703 897.761 368.789L959.473 466.934C947.577 480.318 931.219 492.462 910.4 503.367C890.077 514.272 867.276 522.947 841.996 529.391C817.212 535.339 791.932 538.313 766.156 538.313Z" fill="black"/>
<path d="M773.595 0.743434C812.754 0.743438 848.939 7.18738 882.149 20.0752C914.865 33.4586 943.366 52.0468 967.655 75.8396C991.448 100.128 1010.04 128.63 1023.42 161.345C1036.31 194.556 1042.75 230.741 1042.75 269.9C1042.75 308.563 1036.06 344.252 1022.68 376.968C1008.8 409.683 989.465 438.185 964.681 462.473C939.897 486.762 910.899 505.598 877.688 518.981C843.982 532.365 807.549 539.056 768.39 539.056C743.606 539.056 719.317 535.834 695.524 529.39C671.731 522.947 649.674 513.281 629.35 500.393C608.532 488.001 590.687 472.882 575.817 455.038L653.887 366.558C669.253 383.412 686.602 396.547 705.934 405.965C724.77 415.383 745.836 420.092 769.133 420.092C771.083 420.092 773.023 420.059 774.953 419.991C776.745 419.929 778.528 419.838 780.303 419.718C796.067 418.652 811.18 415.307 825.641 409.683C842.99 402.743 858.109 392.582 870.996 379.198C883.884 365.815 894.046 349.953 901.481 331.613C908.916 313.272 912.634 292.454 912.634 269.156C912.634 246.355 909.164 225.536 902.225 206.7C894.789 188.36 884.38 172.498 870.996 159.115C857.117 146.227 840.76 136.313 821.924 129.373C808.924 124.707 795.027 121.609 780.233 120.081C775.192 119.56 770.047 119.221 764.798 119.065C762.545 118.998 760.272 118.964 757.981 118.964C742.614 118.964 727.992 120.947 714.113 124.912C699.738 129.373 686.354 135.57 673.962 143.5C661.57 151.431 650.913 160.354 641.99 170.267L580.278 72.1219C592.174 58.7385 608.532 46.5942 629.351 35.6891C649.674 24.7841 672.475 16.1096 697.755 9.66572C722.539 3.71751 747.819 0.743432 773.595 0.743434Z" fill="black"/>
<path fill-rule="evenodd" clip-rule="evenodd" d="M735.77 89.0181C729.878 85.6166 723.144 83.6467 716.108 83.6467C698.048 83.6467 682.658 95.3974 677.269 111.569C623.621 143.722 587.712 202.432 587.712 269.528C587.712 272.958 587.805 276.366 587.991 279.75C584.46 287.298 582.505 295.677 582.505 304.381C582.505 324.806 592.355 342.417 607.53 352.69C610.552 358.645 613.888 364.413 617.517 369.973C617.411 371.344 617.358 372.715 617.358 374.087C617.358 400.226 637.689 420.557 663.829 420.557C664.696 420.557 665.606 420.557 666.536 420.537C669.999 422.953 673.548 425.254 677.178 427.432C682.483 444.065 697.945 455.41 716.108 455.41C723.225 455.41 730.031 453.472 735.971 450.078C747.54 452.356 759.497 453.551 771.734 453.551C782.131 453.551 792.326 452.689 802.252 451.032C807.776 453.833 814.032 455.41 820.666 455.41C836.25 455.41 850.127 446.451 856.739 432.784C863.835 429.082 870.659 424.93 877.174 420.368C898.81 418.425 916.441 401.715 919.076 379.796C927.979 367.918 935.48 354.928 941.332 341.072C949.383 331.157 954.268 318.435 954.268 304.381C954.268 301.827 954.091 299.302 953.748 296.817C955.071 287.913 955.757 278.801 955.757 269.528C955.757 198.48 915.494 136.836 856.54 106.169C849.851 92.8465 836.095 83.6467 820.666 83.6467C814.11 83.6467 807.923 85.2483 802.447 88.0569C792.459 86.3789 782.199 85.5055 771.734 85.5055C759.427 85.5055 747.401 86.7137 735.77 89.0181ZM714.11 129.374C727.659 124.105 741.779 120.836 756.471 119.567C759.226 119.33 762.002 119.162 764.798 119.065C770.047 119.221 775.192 119.56 780.233 120.081C795.027 121.609 808.924 124.707 821.924 129.373C840.76 136.313 857.117 146.227 870.996 159.115C884.38 172.498 894.789 188.36 902.225 206.7C909.164 225.536 912.634 246.355 912.634 269.156C912.634 292.454 908.916 313.272 901.481 331.613C894.046 349.953 883.884 365.815 870.996 379.198C858.109 392.582 842.99 402.743 825.641 409.683C811.18 415.307 796.067 418.652 780.303 419.718C778.528 419.838 776.745 419.929 774.953 419.991C768.68 419.805 762.555 419.357 756.579 418.65C742.88 417.028 729.963 414.039 717.827 409.683C698.991 402.743 682.634 392.83 668.755 379.942C655.371 366.558 644.962 350.696 637.526 332.356C630.587 313.52 627.117 292.701 627.117 269.9C627.117 246.603 630.835 225.784 638.27 207.444C645.705 189.103 655.867 173.242 668.755 159.858C681.642 146.475 696.761 136.313 714.11 129.374Z" fill="black"/>
<path d="M756.769 124.308V414.748C756.769 416.065 756.705 417.366 756.579 418.65C762.555 419.357 768.68 419.805 774.953 419.991C776.745 419.929 778.528 419.838 780.303 419.718C780.106 418.09 780.005 416.431 780.005 414.748V124.308C780.005 122.885 780.082 121.475 780.233 120.081C775.192 119.56 770.047 119.221 764.798 119.065C762.002 119.162 759.226 119.33 756.471 119.567C756.668 121.128 756.769 122.71 756.769 124.308Z" fill="black"/>
<path d="M825.641 409.683C842.99 402.743 858.109 392.582 870.996 379.198C883.884 365.815 894.046 349.953 901.481 331.613C908.916 313.272 912.634 292.454 912.634 269.156C912.634 246.355 909.164 225.536 902.225 206.7C894.789 188.36 884.38 172.498 870.996 159.115C857.117 146.227 840.76 136.313 821.924 129.373C808.924 124.707 795.027 121.609 780.233 120.081C780.082 121.475 780.005 122.885 780.005 124.308V414.748C780.005 416.431 780.106 418.09 780.303 419.718C796.067 418.652 811.18 415.307 825.641 409.683Z" fill="black"/>
<path d="M714.11 129.374C696.761 136.313 681.642 146.475 668.755 159.858C655.867 173.242 645.705 189.103 638.27 207.444C630.835 225.784 627.117 246.603 627.117 269.9C627.117 292.701 630.587 313.52 637.526 332.356C644.962 350.696 655.371 366.558 668.755 379.942C682.634 392.83 698.991 402.743 717.827 409.683C729.963 414.039 742.88 417.028 756.579 418.65C756.705 417.366 756.769 416.065 756.769 414.748V124.308C756.769 122.71 756.668 121.128 756.471 119.567C741.779 120.836 727.659 124.105 714.11 129.374Z" fill="black"/>
<path d="M957.987 268.982C957.987 267.021 957.866 265.082 957.692 263.152C957.639 262.589 957.583 262.038 957.518 261.478C957.335 259.934 957.1 258.399 956.809 256.876C956.73 256.482 956.683 256.078 956.6 255.692C956.23 253.944 955.774 252.223 955.26 250.522C955.073 249.889 954.86 249.265 954.651 248.636C954.238 247.404 953.795 246.189 953.307 244.992C953.086 244.446 952.885 243.891 952.651 243.353C951.955 241.739 951.185 240.161 950.363 238.612C950.115 238.157 949.854 237.71 949.593 237.259C948.888 236.006 948.136 234.774 947.34 233.568C947.088 233.173 946.835 232.783 946.574 232.397C945.5 230.84 944.369 229.322 943.169 227.856C943.134 227.817 943.095 227.778 943.069 227.743C941.864 226.29 940.585 224.907 939.259 223.562C939.05 223.358 938.85 223.154 938.645 222.955C935.87 220.218 932.843 217.72 929.585 215.499C929.372 215.352 929.15 215.217 928.933 215.065C927.498 214.116 926.023 213.226 924.505 212.385C924.244 212.242 923.988 212.086 923.722 211.947C923.479 211.817 923.253 211.669 923.009 211.539C927.302 203.121 929.546 193.826 929.546 184.223C929.546 150.931 902.406 123.836 869.023 123.793C863.839 95.54 838.977 74.3526 809.431 74.3526C795.026 74.3526 781.134 79.5616 770.247 88.7652C759.356 79.5616 745.468 74.3526 731.063 74.3526C701.517 74.3526 676.655 95.54 671.462 123.81C638.084 123.853 610.944 150.948 610.944 184.241C610.944 193.843 613.184 203.134 617.481 211.557C617.237 211.682 617.011 211.83 616.768 211.964C616.498 212.099 616.246 212.255 615.98 212.402C614.467 213.244 612.988 214.133 611.557 215.083C611.339 215.23 611.118 215.365 610.904 215.517C607.642 217.737 604.62 220.235 601.84 222.972C601.636 223.172 601.436 223.376 601.231 223.579C599.905 224.924 598.622 226.308 597.421 227.761C597.386 227.8 597.352 227.839 597.325 227.873C596.116 229.339 594.99 230.857 593.915 232.414C593.65 232.8 593.402 233.191 593.146 233.585C592.354 234.787 591.606 236.023 590.897 237.276C590.636 237.728 590.371 238.166 590.127 238.63C589.305 240.174 588.535 241.757 587.835 243.37C587.6 243.908 587.396 244.459 587.187 245.001C586.704 246.198 586.252 247.421 585.839 248.653C585.63 249.282 585.417 249.902 585.225 250.54C584.721 252.244 584.26 253.962 583.89 255.71C583.807 256.1 583.755 256.503 583.677 256.894C583.39 258.416 583.155 259.947 582.972 261.496C582.916 262.038 582.855 262.589 582.803 263.152C582.624 265.078 582.507 267.021 582.507 268.982C582.507 291.856 594.577 312.792 613.875 324.394C609.339 332.995 606.977 342.537 606.977 352.404C606.977 385.033 633.048 411.707 665.508 412.8C669.331 442.042 694.488 464.704 724.83 464.704C742.624 464.704 758.447 459.286 770.247 449.372C782.052 459.286 797.875 464.704 815.66 464.704C846.01 464.704 871.159 442.042 874.982 412.8C907.447 411.707 933.517 385.037 933.517 352.404C933.517 342.537 931.156 332.995 926.623 324.394C945.918 312.792 957.987 291.856 957.987 268.982ZM762.723 170.904C757.138 174.864 748.217 176.33 739.04 174.634C726.892 172.387 717.205 165.456 713.13 156.088C711.477 152.284 707.049 150.545 703.226 152.193C699.416 153.841 697.668 158.265 699.32 162.069C705.392 176.026 719.219 186.236 736.3 189.402C739.736 190.035 743.15 190.348 746.482 190.348C752.266 190.348 757.795 189.406 762.727 187.619V436.004C753.502 444.852 740.171 449.697 724.834 449.697C700.19 449.697 680.122 429.72 680.07 405.149C680.07 405.119 680.078 405.088 680.078 405.058C680.078 393.374 684.51 383.237 692.888 375.756C701.112 368.417 712.456 364.37 724.843 364.37C729.001 364.37 732.368 361.013 732.368 356.867C732.368 352.725 729.001 349.364 724.843 349.364C717.906 349.364 711.216 350.422 704.936 352.352C706.849 340.373 705.21 327.92 699.821 316.86C698.011 313.13 693.501 311.578 689.76 313.386C686.02 315.199 684.463 319.684 686.276 323.418C692.092 335.363 692.139 349.485 686.581 361.556C685.298 362.518 684.036 363.507 682.845 364.574C673.154 373.218 667.191 384.812 665.538 397.732C641.372 396.657 622.03 376.775 622.03 352.417C622.03 342.819 625.01 333.637 630.638 325.864L636.118 318.309L627.541 314.588C609.326 306.685 597.556 288.79 597.556 268.995C597.556 267.459 597.647 265.937 597.791 264.428C597.839 263.92 597.908 263.417 597.969 262.91C598.091 261.916 598.243 260.927 598.422 259.952C598.53 259.379 598.639 258.802 598.761 258.238C598.978 257.275 599.231 256.339 599.5 255.397C599.639 254.903 599.761 254.404 599.918 253.914C600.344 252.583 600.822 251.281 601.357 250.002C601.557 249.52 601.792 249.048 602.005 248.575C602.401 247.703 602.81 246.84 603.254 245.994C603.515 245.504 603.784 245.018 604.063 244.533C604.55 243.67 605.068 242.824 605.607 241.995C605.855 241.614 606.094 241.228 606.355 240.855C608.051 238.4 609.952 236.101 612.053 233.993C612.196 233.846 612.353 233.707 612.505 233.559C613.432 232.649 614.397 231.777 615.389 230.94C615.624 230.745 615.854 230.558 616.089 230.367C617.076 229.565 618.094 228.81 619.138 228.09C619.347 227.951 619.551 227.8 619.76 227.652C622.252 225.991 624.905 224.555 627.685 223.354C628.111 223.172 628.55 223.011 628.985 222.842C634.692 220.569 640.894 219.281 647.401 219.281C664.172 219.281 678.417 227.483 687.377 242.008C678.199 246.732 670.122 253.667 663.955 262.484C661.571 265.881 662.411 270.56 665.821 272.937C667.134 273.848 668.635 274.286 670.122 274.286C672.497 274.286 674.837 273.167 676.299 271.077C686.968 255.827 705.096 247.872 723.551 250.292C727.662 250.835 731.454 247.942 731.998 243.834C732.542 239.727 729.641 235.954 725.522 235.411C717.392 234.34 709.333 234.848 701.678 236.704C690.182 216.302 670.288 204.274 647.401 204.274C641.994 204.274 636.766 205.012 631.738 206.261C627.989 199.547 625.993 192.043 625.993 184.249C625.993 159.211 646.422 138.83 671.54 138.83C673.363 138.83 675.203 138.947 677.156 139.19L685.141 140.179L685.593 132.168C686.959 108.174 706.928 89.3724 731.058 89.3724C742.872 89.3724 754.254 93.9959 762.714 102.141V170.904H762.723ZM912.949 314.575L904.372 318.296L909.852 325.851C915.489 333.624 918.459 342.806 918.459 352.404C918.459 376.745 899.152 396.609 875.017 397.715C873.055 381.98 864.861 367.649 852.33 357.934C857.463 350.834 861.073 342.606 862.656 333.745C863.382 329.664 860.655 325.765 856.562 325.036C852.465 324.316 848.564 327.031 847.829 331.108C844.662 348.843 830.657 363.23 812.972 366.916C808.896 367.762 806.295 371.744 807.144 375.799C807.887 379.338 811.015 381.776 814.499 381.776C815.007 381.776 815.529 381.724 816.047 381.615C825.742 379.594 834.589 375.14 841.97 368.981C853.452 377.326 860.429 390.697 860.429 405.041V405.084C860.403 429.68 840.326 449.688 815.656 449.688C800.328 449.688 786.993 444.843 777.767 435.995V290.993C781.19 291.115 785.505 291.223 790.055 291.223C795.892 291.223 802.063 291.041 807.174 290.486C808.74 297.325 811.149 303.666 814.425 308.156C815.895 310.177 818.191 311.248 820.518 311.248C822.054 311.248 823.606 310.784 824.937 309.817C828.299 307.375 829.043 302.682 826.603 299.329C820.101 290.399 818.591 268.635 821.445 261.539C822.989 257.696 821.123 253.32 817.26 251.78C813.403 250.245 809.018 252.105 807.47 255.953C805.56 260.706 804.817 267.897 805.169 275.626C798.005 276.355 786.727 276.29 777.767 275.969V174.274V102.133C786.223 93.9873 797.614 89.3638 809.423 89.3638C831.348 89.3638 849.781 104.904 854.005 125.744C841.87 128.82 830.848 135.542 822.589 145.318C819.909 148.485 820.314 153.221 823.493 155.893C824.902 157.081 826.625 157.658 828.339 157.658C830.479 157.658 832.61 156.751 834.097 154.995C841.596 146.121 852.091 140.539 863.482 139.177C865.374 138.947 867.166 138.826 868.945 138.826C894.05 138.826 914.488 159.202 914.488 184.245C914.488 192.039 912.492 199.543 908.743 206.257C903.719 205.007 898.491 204.27 893.08 204.27C882.537 204.27 872.281 206.829 863.047 211.652C856.871 205.81 849.507 201.134 841.213 198.024C837.312 196.545 832.975 198.523 831.518 202.414C830.057 206.296 832.023 210.62 835.924 212.081C853.378 218.622 865.592 234.158 867.801 252.63C868.258 256.447 871.511 259.245 875.269 259.245C875.565 259.245 875.87 259.227 876.174 259.193C880.302 258.702 883.251 254.964 882.755 250.848C881.567 240.902 878.118 231.629 872.908 223.545C879.223 220.756 886.065 219.281 893.085 219.281C899.591 219.281 905.798 220.569 911.5 222.842C911.935 223.011 912.375 223.172 912.801 223.354C915.58 224.555 918.233 225.991 920.726 227.652C920.934 227.795 921.134 227.947 921.348 228.09C922.391 228.81 923.414 229.569 924.392 230.367C924.631 230.558 924.862 230.745 925.097 230.94C926.093 231.773 927.05 232.649 927.98 233.559C928.124 233.703 928.281 233.841 928.428 233.993C930.529 236.101 932.434 238.4 934.131 240.855C934.387 241.228 934.631 241.614 934.879 241.995C935.418 242.824 935.936 243.67 936.423 244.533C936.697 245.018 936.971 245.504 937.232 245.994C937.675 246.836 938.084 247.703 938.48 248.575C938.698 249.048 938.932 249.52 939.132 250.002C939.663 251.281 940.142 252.587 940.568 253.914C940.724 254.4 940.846 254.903 940.985 255.397C941.259 256.339 941.507 257.28 941.72 258.238C941.847 258.802 941.955 259.379 942.064 259.952C942.242 260.927 942.39 261.912 942.516 262.91C942.582 263.413 942.651 263.916 942.695 264.428C942.834 265.937 942.934 267.455 942.934 268.995C942.934 288.777 931.164 306.668 912.949 314.575Z" fill="white" stroke="white" stroke-width="2"/>
<path d="M0 520L197.516 20H300.91L497 520H374.354L279.518 266.429C276.19 256.429 272.387 245.714 268.109 234.286C264.306 222.857 260.503 210.952 256.7 198.571C252.897 186.191 249.332 174.286 246.004 162.857C242.677 151.429 239.824 140.714 237.448 130.714L258.126 130C255.274 141.905 252.184 153.571 248.857 165C245.529 176.429 241.964 187.857 238.161 199.286C234.358 210.714 230.317 222.143 226.039 233.571C222.236 244.524 218.195 255.952 213.917 267.857L119.793 520H0ZM94.1234 424.286L132.628 331.429H360.806L399.311 424.286H94.1234Z" fill="black" fill-opacity="0.4"/>
</svg>
