<svg width="1105" height="145" viewBox="0 0 1105 145" fill="none" xmlns="http://www.w3.org/2000/svg">
<path d="M964 142V2H994.6L1045.4 84.6L1023.8 84.4L1075.2 2H1104.8V142H1071.6V99.6C1071.6 87.3333 1071.87 76.3333 1072.4 66.6C1073.07 56.7333 1074.13 47.0667 1075.6 37.6L1079.4 48L1040.8 107.8H1027.2L989.4 48.4L993.2 37.6C994.8 46.5333 995.867 55.8 996.4 65.4C997.067 74.8667 997.4 86.2667 997.4 99.6V142H964Z" fill="black"/>
<path d="M853.4 144.8C842.867 144.8 833.133 143.067 824.2 139.6C815.4 136 807.733 131 801.2 124.6C794.8 118.067 789.8 110.4 786.2 101.6C782.733 92.6667 781 82.9333 781 72.4C781 62 782.8 52.4 786.4 43.6C790.133 34.8 795.333 27.1333 802 20.6C808.667 14.0667 816.467 9 825.4 5.4C834.467 1.8 844.267 0 854.8 0C861.467 0 868 0.866667 874.4 2.6C880.8 4.33334 886.733 6.93334 892.2 10.4C897.8 13.7333 902.6 17.8 906.6 22.6L885.6 46.4C881.467 41.8667 876.8 38.3333 871.6 35.8C866.533 33.2667 860.867 32 854.6 32C854.076 32 853.554 32.009 853.035 32.0271C852.283 32.0532 851.536 32.0983 850.795 32.1623C846.843 32.5035 843.045 33.3827 839.4 34.8C834.733 36.6667 830.667 39.4 827.2 43C823.733 46.6 821 50.8667 819 55.8C817 60.7333 816 66.3333 816 72.6C816 78.7333 816.933 84.3333 818.8 89.4C820.8 94.3333 823.6 98.6 827.2 102.2C830.933 105.667 835.333 108.333 840.4 110.2C843.664 111.372 847.139 112.176 850.824 112.612C852.431 112.802 854.079 112.923 855.766 112.973C856.372 112.991 856.984 113 857.6 113C861.733 113 865.667 112.467 869.4 111.4C873.267 110.2 876.867 108.533 880.2 106.4C883.533 104.267 886.4 101.867 888.8 99.2L905.4 125.6C902.2 129.2 897.8 132.467 892.2 135.4C886.733 138.333 880.6 140.667 873.8 142.4C867.133 144 860.333 144.8 853.4 144.8Z" fill="black"/>
<path d="M855.401 0.199975C865.934 0.199976 875.667 1.93332 884.601 5.39999C893.401 8.99999 901.067 14 907.601 20.4C914.001 26.9333 919.001 34.6 922.601 43.4C926.067 52.3333 927.801 62.0667 927.801 72.6C927.801 83 926.001 92.6 922.401 101.4C918.667 110.2 913.467 117.867 906.801 124.4C900.134 130.933 892.334 136 883.401 139.6C874.334 143.2 864.534 145 854.001 145C847.334 145 840.801 144.133 834.401 142.4C828.001 140.667 822.067 138.067 816.601 134.6C811.001 131.267 806.201 127.2 802.201 122.4L823.201 98.6C827.334 103.133 832.001 106.667 837.201 109.2C842.267 111.733 847.934 113 854.201 113C854.725 113 855.247 112.991 855.766 112.973C856.248 112.956 856.728 112.932 857.205 112.899C861.446 112.613 865.511 111.713 869.401 110.2C874.067 108.333 878.134 105.6 881.601 102C885.067 98.4 887.801 94.1333 889.801 89.2C891.801 84.2667 892.801 78.6667 892.801 72.4C892.801 66.2667 891.867 60.6667 890.001 55.6C888.001 50.6667 885.201 46.4 881.601 42.8C877.867 39.3333 873.467 36.6667 868.401 34.8C864.904 33.5447 861.166 32.7115 857.186 32.3003C855.831 32.1602 854.447 32.0692 853.035 32.0271C852.428 32.009 851.817 32 851.201 32C847.067 32 843.134 32.5333 839.401 33.6C835.534 34.8 831.934 36.4667 828.601 38.6C825.267 40.7333 822.401 43.1333 820.001 45.8L803.401 19.4C806.601 15.8 811.001 12.5333 816.601 9.59997C822.067 6.66663 828.201 4.3333 835.001 2.59997C841.667 0.999968 848.467 0.199975 855.401 0.199975Z" fill="black"/>
<path fill-rule="evenodd" clip-rule="evenodd" d="M845.226 23.9449C843.642 23.0299 841.83 22.5 839.938 22.5C835.08 22.5 830.94 25.6608 829.49 30.0108C815.06 38.6596 805.4 54.4518 805.4 72.5C805.4 73.4226 805.426 74.3393 805.475 75.2494C804.526 77.28 804 79.5337 804 81.875C804 87.3691 806.649 92.1062 810.731 94.8696C811.544 96.4713 812.442 98.0229 813.418 99.5185C813.389 99.8873 813.375 100.256 813.375 100.625C813.375 107.656 818.844 113.125 825.875 113.125C826.108 113.125 826.353 113.125 826.603 113.12C827.535 113.77 828.489 114.388 829.466 114.974C830.893 119.448 835.052 122.5 839.938 122.5C841.852 122.5 843.683 121.979 845.28 121.066C848.392 121.679 851.609 122 854.9 122C857.697 122 860.439 121.768 863.109 121.322C864.595 122.076 866.278 122.5 868.062 122.5C872.254 122.5 875.987 120.09 877.766 116.414C879.674 115.418 881.51 114.301 883.263 113.074C889.082 112.552 893.825 108.057 894.534 102.161C896.928 98.9657 898.946 95.4716 900.52 91.7445C902.686 89.0773 904 85.6554 904 81.875C904 81.1881 903.952 80.5088 903.86 79.8405C904.216 77.4453 904.4 74.9942 904.4 72.5C904.4 53.3889 893.57 36.8073 877.712 28.5581C875.913 24.9746 872.213 22.5 868.062 22.5C866.299 22.5 864.635 22.9308 863.162 23.6863C860.475 23.235 857.715 23 854.9 23C851.59 23 848.355 23.325 845.226 23.9449ZM839.4 34.8C843.045 33.3827 846.843 32.5035 850.795 32.1623C851.536 32.0983 852.283 32.0532 853.035 32.0271C854.447 32.0692 855.831 32.1602 857.186 32.3003C861.166 32.7115 864.904 33.5447 868.401 34.8C873.467 36.6667 877.867 39.3333 881.601 42.8C885.201 46.4 888.001 50.6667 890.001 55.6C891.867 60.6667 892.801 66.2667 892.801 72.4C892.801 78.6667 891.801 84.2667 889.801 89.2C887.801 94.1333 885.067 98.4 881.601 102C878.134 105.6 874.067 108.333 869.401 110.2C865.511 111.713 861.446 112.613 857.205 112.899C856.728 112.932 856.248 112.956 855.766 112.973C854.079 112.923 852.431 112.802 850.824 112.612C847.139 112.176 843.664 111.372 840.4 110.2C835.333 108.333 830.933 105.667 827.2 102.2C823.6 98.6 820.8 94.3333 818.8 89.4C816.933 84.3333 816 78.7333 816 72.6C816 66.3333 817 60.7333 819 55.8C821 50.8667 823.733 46.6 827.2 43C830.667 39.4 834.733 36.6667 839.4 34.8Z" fill="black"/>
<path d="M850.875 33.4375V111.562C850.875 111.917 850.858 112.267 850.824 112.612C852.431 112.802 854.079 112.923 855.766 112.973C856.248 112.956 856.728 112.932 857.205 112.899C857.152 112.461 857.125 112.015 857.125 111.562V33.4375C857.125 33.0547 857.146 32.6753 857.186 32.3003C855.831 32.1602 854.447 32.0692 853.035 32.0271C852.283 32.0532 851.536 32.0983 850.795 32.1623C850.848 32.582 850.875 33.0077 850.875 33.4375Z" fill="black"/>
<path d="M869.401 110.2C874.067 108.333 878.134 105.6 881.601 102C885.067 98.4 887.801 94.1333 889.801 89.2C891.801 84.2667 892.801 78.6667 892.801 72.4C892.801 66.2667 891.867 60.6667 890.001 55.6C888.001 50.6667 885.201 46.4 881.601 42.8C877.867 39.3333 873.467 36.6667 868.401 34.8C864.904 33.5447 861.166 32.7115 857.186 32.3003C857.146 32.6753 857.125 33.0547 857.125 33.4375V111.562C857.125 112.015 857.152 112.461 857.205 112.899C861.446 112.613 865.511 111.713 869.401 110.2Z" fill="black"/>
<path d="M839.4 34.8C834.733 36.6667 830.667 39.4 827.2 43C823.733 46.6 821 50.8667 819 55.8C817 60.7333 816 66.3333 816 72.6C816 78.7333 816.933 84.3333 818.8 89.4C820.8 94.3333 823.6 98.6 827.2 102.2C830.933 105.667 835.333 108.333 840.4 110.2C843.664 111.372 847.139 112.176 850.824 112.612C850.858 112.267 850.875 111.917 850.875 111.562V33.4375C850.875 33.0077 850.848 32.582 850.795 32.1623C846.843 32.5035 843.045 33.3827 839.4 34.8Z" fill="black"/>
<path d="M905 72.353C905 71.8257 904.967 71.3042 904.92 70.785C904.906 70.6333 904.891 70.4852 904.874 70.3347C904.825 69.9193 904.761 69.5063 904.683 69.0968C904.662 68.9907 904.649 68.8822 904.627 68.7783C904.527 68.3082 904.404 67.845 904.266 67.3877C904.216 67.2173 904.159 67.0493 904.103 66.8802C903.992 66.5488 903.872 66.2222 903.741 65.9002C903.681 65.7532 903.628 65.6038 903.564 65.4592C903.377 65.0252 903.17 64.6005 902.949 64.184C902.882 64.0615 902.812 63.9413 902.742 63.82C902.552 63.4828 902.35 63.1515 902.136 62.8272C902.068 62.721 902 62.616 901.93 62.5122C901.641 62.0933 901.337 61.685 901.014 61.2907C901.005 61.2802 900.994 61.2697 900.987 61.2603C900.663 60.8695 900.319 60.4973 899.962 60.1357C899.906 60.0808 899.852 60.026 899.797 59.9723C899.051 59.2362 898.236 58.5642 897.36 57.9668C897.303 57.9272 897.243 57.891 897.185 57.8502C896.799 57.5947 896.402 57.3555 895.994 57.1292C895.923 57.0907 895.854 57.0487 895.783 57.0113C895.718 56.9763 895.657 56.9367 895.591 56.9017C896.746 54.6372 897.35 52.137 897.35 49.554C897.35 40.5987 890.049 33.3105 881.07 33.2988C879.675 25.6992 872.988 20 865.04 20C861.165 20 857.428 21.4012 854.5 23.8768C851.57 21.4012 847.835 20 843.96 20C836.012 20 829.325 25.6992 827.928 33.3035C818.95 33.3152 811.649 40.6033 811.649 49.5587C811.649 52.1417 812.252 54.6407 813.408 56.9063C813.342 56.9402 813.281 56.9798 813.216 57.016C813.143 57.0522 813.075 57.0942 813.004 57.1338C812.597 57.3602 812.199 57.5993 811.814 57.8548C811.756 57.8945 811.696 57.9307 811.639 57.9715C810.761 58.5688 809.948 59.2408 809.2 59.977C809.145 60.0307 809.092 60.0855 809.037 60.1403C808.68 60.502 808.335 60.8742 808.012 61.265C808.002 61.2755 807.993 61.286 807.986 61.2953C807.661 61.6897 807.358 62.098 807.069 62.5168C806.997 62.6207 806.931 62.7257 806.862 62.8318C806.649 63.155 806.448 63.4875 806.257 63.8247C806.187 63.946 806.115 64.0638 806.05 64.1887C805.829 64.604 805.622 65.0298 805.433 65.4638C805.37 65.6085 805.315 65.7567 805.259 65.9025C805.129 66.2245 805.007 66.5535 804.896 66.8848C804.84 67.054 804.783 67.2208 804.731 67.3923C804.596 67.8508 804.471 68.3128 804.372 68.783C804.35 68.888 804.336 68.9965 804.315 69.1015C804.238 69.511 804.174 69.9228 804.125 70.3393C804.11 70.4852 804.094 70.6333 804.08 70.785C804.032 71.303 804 71.8257 804 72.353C804 78.506 807.247 84.1375 812.438 87.2583C811.217 89.5718 810.582 92.1385 810.582 94.7927C810.582 103.569 817.595 110.744 826.326 111.038C827.355 118.904 834.122 125 842.283 125C847.07 125 851.326 123.543 854.5 120.876C857.675 123.543 861.932 125 866.716 125C874.879 125 881.644 118.904 882.673 111.038C891.405 110.744 898.418 103.571 898.418 94.7927C898.418 92.1385 897.783 89.5718 896.563 87.2583C901.753 84.1375 905 78.506 905 72.353ZM852.476 45.9712C850.974 47.0363 848.574 47.4307 846.106 46.9745C842.838 46.3702 840.232 44.5058 839.136 41.9858C838.692 40.9627 837.501 40.4948 836.472 40.9382C835.447 41.3815 834.977 42.5715 835.422 43.5947C837.055 47.349 840.774 50.0953 845.368 50.947C846.293 51.1173 847.211 51.2013 848.107 51.2013C849.663 51.2013 851.15 50.9482 852.477 50.4675V117.28C849.996 119.66 846.41 120.963 842.284 120.963C835.656 120.963 830.257 115.59 830.243 108.98C830.243 108.972 830.246 108.964 830.246 108.956C830.246 105.813 831.438 103.086 833.691 101.074C835.904 99.1 838.955 98.0115 842.287 98.0115C843.405 98.0115 844.311 97.1085 844.311 95.9932C844.311 94.879 843.405 93.9748 842.287 93.9748C840.421 93.9748 838.621 94.2595 836.932 94.7787C837.447 91.5563 837.006 88.2068 835.556 85.2318C835.069 84.2285 833.856 83.8108 832.85 84.2973C831.844 84.785 831.425 85.9913 831.913 86.9958C833.477 90.2088 833.49 94.0075 831.995 97.2543C831.65 97.5133 831.31 97.7793 830.99 98.0663C828.383 100.391 826.779 103.51 826.334 106.985C819.834 106.696 814.631 101.348 814.631 94.7962C814.631 92.2143 815.433 89.7445 816.947 87.6538L818.421 85.6215L816.114 84.6205C811.214 82.4948 808.048 77.6812 808.048 72.3565C808.048 71.9435 808.073 71.534 808.111 71.128C808.124 70.9915 808.143 70.8562 808.159 70.7197C808.192 70.4525 808.233 70.1865 808.281 69.924C808.31 69.77 808.339 69.6148 808.372 69.4632C808.431 69.2042 808.498 68.9522 808.571 68.699C808.608 68.566 808.641 68.4318 808.683 68.3C808.798 67.9418 808.927 67.5918 809.071 67.2477C809.124 67.1182 809.188 66.991 809.245 66.8638C809.351 66.6293 809.461 66.3972 809.581 66.1697C809.651 66.0378 809.723 65.9072 809.798 65.7765C809.929 65.5443 810.069 65.3168 810.214 65.094C810.28 64.9913 810.345 64.8875 810.415 64.7872C810.871 64.1268 811.382 63.5085 811.948 62.9415C811.986 62.9018 812.028 62.8645 812.069 62.8248C812.318 62.5798 812.578 62.3453 812.845 62.1202C812.908 62.0677 812.97 62.0175 813.033 61.9662C813.299 61.7503 813.573 61.5473 813.853 61.3537C813.91 61.3163 813.965 61.2755 814.021 61.2358C814.691 60.789 815.405 60.4028 816.152 60.0797C816.267 60.0307 816.385 59.9875 816.502 59.942C818.037 59.3307 819.705 58.9842 821.456 58.9842C825.967 58.9842 829.799 61.1903 832.209 65.0975C829.74 66.368 827.568 68.2335 825.909 70.6053C825.267 71.5188 825.493 72.7777 826.411 73.417C826.764 73.662 827.167 73.7798 827.568 73.7798C828.206 73.7798 828.836 73.4788 829.229 72.9165C832.099 68.8145 836.975 66.6748 841.939 67.3258C843.045 67.4717 844.065 66.6935 844.211 65.5887C844.358 64.4838 843.577 63.4688 842.469 63.323C840.283 63.0348 838.115 63.1713 836.056 63.6707C832.963 58.1827 827.612 54.9475 821.456 54.9475C820.001 54.9475 818.595 55.1458 817.243 55.4818C816.234 53.6758 815.697 51.6575 815.697 49.561C815.697 42.8258 821.193 37.3437 827.949 37.3437C828.439 37.3437 828.934 37.3752 829.459 37.4405L831.607 37.7065L831.729 35.5517C832.097 29.0977 837.468 24.0402 843.959 24.0402C847.136 24.0402 850.198 25.2838 852.474 27.4748V45.9712H852.476ZM892.885 84.617L890.578 85.618L892.052 87.6503C893.568 89.741 894.367 92.2108 894.367 94.7927C894.367 101.34 889.174 106.683 882.682 106.981C882.154 102.748 879.95 98.8935 876.579 96.2802C877.96 94.3703 878.931 92.1572 879.357 89.7737C879.552 88.6758 878.819 87.627 877.718 87.431C876.616 87.2373 875.566 87.9677 875.369 89.0643C874.517 93.8348 870.75 97.7047 865.992 98.6963C864.896 98.9238 864.197 99.9948 864.425 101.086C864.625 102.038 865.466 102.693 866.403 102.693C866.54 102.693 866.68 102.679 866.82 102.65C869.427 102.106 871.807 100.908 873.793 99.2517C876.881 101.496 878.758 105.093 878.758 108.951V108.963C878.751 115.579 873.35 120.961 866.714 120.961C862.591 120.961 859.004 119.658 856.523 117.278V78.2738C857.444 78.3065 858.604 78.3357 859.828 78.3357C861.398 78.3357 863.058 78.2867 864.433 78.1373C864.854 79.9772 865.502 81.6828 866.383 82.8903C866.779 83.434 867.396 83.7222 868.022 83.7222C868.435 83.7222 868.853 83.5973 869.211 83.3372C870.115 82.6803 870.315 81.418 869.659 80.5162C867.91 78.114 867.504 72.2597 868.272 70.351C868.687 69.3173 868.185 68.1402 867.146 67.726C866.108 67.313 864.929 67.8135 864.512 68.8483C863.999 70.127 863.799 72.0613 863.894 74.1403C861.967 74.3363 858.933 74.3188 856.523 74.2325V46.8777V27.4725C858.797 25.2815 861.861 24.0378 865.038 24.0378C870.936 24.0378 875.894 28.218 877.03 33.8238C873.766 34.651 870.801 36.4593 868.579 39.089C867.859 39.9407 867.967 41.2147 868.823 41.9333C869.202 42.253 869.665 42.4082 870.126 42.4082C870.702 42.4082 871.275 42.1643 871.675 41.6918C873.692 39.3048 876.515 37.8033 879.579 37.437C880.088 37.3752 880.57 37.3425 881.049 37.3425C887.802 37.3425 893.299 42.8235 893.299 49.5598C893.299 51.6563 892.762 53.6747 891.754 55.4807C890.402 55.1447 888.996 54.9463 887.541 54.9463C884.705 54.9463 881.946 55.6347 879.462 56.932C877.801 55.3605 875.82 54.1028 873.589 53.2663C872.54 52.8685 871.373 53.4005 870.981 54.447C870.588 55.4912 871.117 56.6543 872.166 57.0475C876.861 58.8068 880.147 62.9858 880.741 67.9547C880.864 68.9813 881.739 69.7338 882.75 69.7338C882.829 69.7338 882.911 69.7292 882.993 69.7198C884.103 69.588 884.897 68.5823 884.763 67.4752C884.444 64.8 883.516 62.3057 882.114 60.131C883.813 59.3808 885.654 58.9842 887.542 58.9842C889.292 58.9842 890.962 59.3307 892.496 59.942C892.613 59.9875 892.731 60.0307 892.845 60.0797C893.593 60.4028 894.307 60.789 894.977 61.2358C895.033 61.2743 895.087 61.3152 895.144 61.3537C895.425 61.5473 895.7 61.7515 895.963 61.9662C896.028 62.0175 896.09 62.0677 896.153 62.1202C896.421 62.3442 896.678 62.5798 896.928 62.8248C896.967 62.8633 897.009 62.9007 897.049 62.9415C897.614 63.5085 898.127 64.1268 898.583 64.7872C898.652 64.8875 898.717 64.9913 898.784 65.094C898.929 65.3168 899.068 65.5443 899.199 65.7765C899.273 65.9072 899.347 66.0378 899.417 66.1697C899.536 66.396 899.646 66.6293 899.753 66.8638C899.811 66.991 899.874 67.1182 899.928 67.2477C900.071 67.5918 900.2 67.943 900.314 68.3C900.356 68.4307 900.389 68.566 900.427 68.699C900.5 68.9522 900.567 69.2053 900.624 69.4632C900.658 69.6148 900.688 69.77 900.717 69.924C900.765 70.1865 900.805 70.4513 900.838 70.7197C900.856 70.855 900.875 70.9903 900.886 71.128C900.924 71.534 900.951 71.9423 900.951 72.3565C900.951 77.6777 897.785 82.4902 892.885 84.617Z" fill="white" stroke="white" stroke-width="2"/>
<path d="M691.4 144.8C680.867 144.8 671.133 143.067 662.2 139.6C653.4 136 645.733 131 639.2 124.6C632.8 118.067 627.8 110.4 624.2 101.6C620.733 92.6667 619 82.9333 619 72.4C619 62 620.8 52.4 624.4 43.6C628.133 34.8 633.333 27.1333 640 20.6C646.667 14.0667 654.467 9 663.4 5.4C672.467 1.8 682.267 0 692.8 0C699.467 0 706 0.866667 712.4 2.6C718.8 4.33334 724.733 6.93334 730.2 10.4C735.8 13.7333 740.6 17.8 744.6 22.6L723.6 46.4C719.467 41.8667 714.8 38.3333 709.6 35.8C704.533 33.2667 698.867 32 692.6 32C687.267 32 682.2 32.9333 677.4 34.8C672.733 36.6667 668.667 39.4 665.2 43C661.733 46.6 659 50.8667 657 55.8C655 60.7333 654 66.3333 654 72.6C654 78.7333 654.933 84.3333 656.8 89.4C658.8 94.3333 661.6 98.6 665.2 102.2C668.933 105.667 673.333 108.333 678.4 110.2C683.6 112.067 689.333 113 695.6 113C699.733 113 703.667 112.467 707.4 111.4C711.267 110.2 714.867 108.533 718.2 106.4C721.533 104.267 724.4 101.867 726.8 99.2L743.4 125.6C740.2 129.2 735.8 132.467 730.2 135.4C724.733 138.333 718.6 140.667 711.8 142.4C705.133 144 698.333 144.8 691.4 144.8Z" fill="black"/>
<path d="M483 142V2H580.6V31.2H516.4V112.8H582.8V142H483ZM499.2 84.8V56.8H571.8V84.8H499.2Z" fill="black"/>
<path d="M381.8 144.8C370.6 144.8 360.467 143 351.4 139.4C342.467 135.8 334.733 130.733 328.2 124.2C321.667 117.667 316.667 110 313.2 101.2C309.733 92.4 308 82.8 308 72.4C308 62 309.867 52.4 313.6 43.6C317.333 34.8 322.533 27.1333 329.2 20.6C336 14.0667 344 9 353.2 5.4C362.533 1.8 372.733 0 383.8 0C391.4 0 398.6 1 405.4 3C412.333 5.00001 418.6 7.73334 424.2 11.2C429.933 14.6667 434.667 18.6 438.4 23L417.4 45C412.6 40.4667 407.4 36.9333 401.8 34.4C396.333 31.7333 390.133 30.4 383.2 30.4C377.467 30.4 372.133 31.4667 367.2 33.6C362.4 35.6 358.133 38.5333 354.4 42.4C350.8 46.1333 348 50.6 346 55.8C344 60.8667 343 66.4 343 72.4C343 78.4 344.067 83.9333 346.2 89C348.333 94.0667 351.267 98.5334 355 102.4C358.867 106.133 363.333 109.067 368.4 111.2C373.467 113.333 378.933 114.4 384.8 114.4C388.933 114.4 392.733 113.8 396.2 112.6C399.8 111.267 402.933 109.533 405.6 107.4C408.4 105.133 410.533 102.533 412 99.6C413.6 96.5333 414.4 93.2667 414.4 89.8V84.6L418.8 91.4H380.6V64.4H446.4C446.667 65.8667 446.867 67.8667 447 70.4C447.133 72.9333 447.2 75.4 447.2 77.8C447.333 80.0667 447.4 81.8667 447.4 83.2C447.4 92.2667 445.733 100.6 442.4 108.2C439.2 115.667 434.6 122.133 428.6 127.6C422.733 133.067 415.8 137.333 407.8 140.4C399.8 143.333 391.133 144.8 381.8 144.8Z" fill="black" fill-opacity="0.4"/>
<path d="M175 142V2H209.2V111.8H271.6V142H175Z" fill="black" fill-opacity="0.4"/>
<path d="M0 142L55.4 2H84.4L139.4 142H105L78.4 71C77.4667 68.2 76.4 65.2 75.2 62C74.1333 58.8 73.0667 55.4667 72 52C70.9333 48.5333 69.9333 45.2 69 42C68.0667 38.8 67.2667 35.8 66.6 33L72.4 32.8C71.6 36.1333 70.7333 39.4 69.8 42.6C68.8667 45.8 67.8667 49 66.8 52.2C65.7333 55.4 64.6 58.6 63.4 61.8C62.3333 64.8667 61.2 68.0667 60 71.4L33.6 142H0ZM26.4 115.2L37.2 89.2H101.2L112 115.2H26.4Z" fill="black" fill-opacity="0.4"/>
</svg>
